  
<svg width="704" height="560" viewBox="0 0 704 560" fill="none" xmlns="http://www.w3.org/2000/svg">
<g clip-path="url(#clip0)">
<path d="M699.655 1.53089C690.871 7.18618 682.051 12.6133 673.195 17.8124C672.555 18.1906 671.914 18.5688 671.273 18.938C660.259 25.3678 649.2 31.4313 638.097 37.1286C637.546 37.4168 636.995 37.6959 636.444 37.9751C617.92 47.4306 599.329 55.8625 580.673 63.2708C580.041 63.523 579.408 63.7751 578.777 64.0182C567.231 68.5569 555.678 72.6933 544.12 76.4275C543.497 76.6256 542.865 76.8327 542.242 77.0218C541.529 77.256 540.816 77.4811 540.103 77.7062C520.605 83.847 500.784 88.9126 480.729 92.8801C479.988 93.0241 479.257 93.1682 478.526 93.3123C464.885 95.9418 451.203 98.0431 437.478 99.616C436.855 99.697 436.241 99.7691 435.618 99.8321C416.117 102.008 396.509 103.099 376.885 103.101C330.61 103.101 283.342 96.9955 236.047 84.9284C235.37 84.7573 234.693 84.5862 234.016 84.3971C226.035 82.3439 218.052 80.1136 210.066 77.7062C205.056 76.1934 200.03 74.6114 194.99 72.9605C194.385 72.7624 193.78 72.5642 193.175 72.3571C171.744 65.27 150.165 56.9251 128.439 47.3225C127.78 47.0344 127.121 46.7372 126.453 46.44C113.372 40.6226 100.261 34.355 87.1199 27.6371C86.5601 27.3579 86.0004 27.0698 85.4409 26.7726C70.2026 18.956 54.9551 10.5481 39.6985 1.54889L40.6189 0C56.4083 9.31142 72.1673 17.9775 87.8962 25.9981L87.9416 26.0161C100.634 32.4999 113.306 38.5574 125.956 44.1887C147.89 53.9911 170.307 62.6802 193.121 70.2229C194.629 70.7182 196.127 71.2134 197.635 71.6817C210.364 75.7881 223.071 79.4533 235.758 82.6771C236.444 82.8572 237.121 83.0283 237.807 83.1994C304.241 99.8952 369.892 104.719 434.761 97.6709C435.383 97.6168 435.997 97.5448 436.62 97.4637C449.539 96.0319 462.418 94.1168 475.258 91.7184C477.47 91.3041 479.682 90.8809 481.893 90.4306C501.777 86.4685 521.429 81.4271 540.762 75.3288C541.385 75.1307 542.017 74.9326 542.639 74.7255C554.8 70.8623 566.921 66.5607 579.002 61.821C579.634 61.5688 580.266 61.3257 580.898 61.0735C599.089 53.8783 617.189 45.7016 635.199 36.5433C635.749 36.2731 636.3 35.9939 636.851 35.6968C648.442 29.7804 659.991 23.4527 671.498 16.7138C672.148 16.3446 672.79 15.9663 673.43 15.5791C681.871 10.6082 690.287 5.4212 698.68 0.0180556L699.655 1.53089Z" fill="#6C63FF"/>
<path d="M125.956 44.1887L87.9416 26.0162L87.8962 25.9981L85.7838 24.9896L85.4409 26.7726L74.9869 80.9932L128.439 47.3226L130.199 46.2149L125.956 44.1887ZM77.5506 77.247L87.1199 27.6371V27.6191L126.471 46.431L126.453 46.44L77.5506 77.247Z" fill="#6C63FF"/>
<path d="M235.758 82.6771L234.016 84.3971L196.208 121.58L194.99 72.9605L194.945 71.0514L197.635 71.6817C196.127 71.2134 194.629 70.7182 193.121 70.2229L193.175 72.3571L194.511 125.776L236.047 84.9284L237.807 83.1994C237.121 83.0283 236.444 82.8572 235.758 82.6771Z" fill="#6C63FF"/>
<path d="M475.258 91.7184L479.519 91.2051L478.526 93.3123L454.802 143.399L437.478 99.616L436.62 97.4637C435.997 97.5448 435.383 97.6168 434.761 97.6708L435.618 99.8321L454.657 147.929L480.729 92.88L481.893 90.4306C479.682 90.8809 477.47 91.3041 475.258 91.7184Z" fill="#6C63FF"/>
<path d="M579.003 61.821L578.777 64.0183L574.037 110.692L544.12 76.4275L542.639 74.7255C542.017 74.9326 541.385 75.1307 540.762 75.3288L542.242 77.0218L575.41 115.015L580.673 63.2708L580.898 61.0735C580.266 61.3257 579.634 61.5688 579.003 61.821Z" fill="#6C63FF"/>
<path d="M671.498 16.7137L671.273 18.938L666.037 69.2773L638.097 37.1286L636.851 35.6968C636.3 35.994 635.749 36.2731 635.199 36.5432L636.444 37.9751L667.4 73.5998L673.195 17.8123L673.43 15.579C672.79 15.9663 672.148 16.3445 671.498 16.7137Z" fill="#6C63FF"/>
<path d="M436.324 335.094C425.245 325.755 418.516 311.003 420.28 296.641C422.045 282.28 432.976 269.077 447.155 266.027C461.334 262.978 477.497 271.42 481.804 285.236C484.174 258.599 486.905 230.845 501.102 208.16C513.958 187.62 536.224 172.922 560.355 170.293C584.486 167.664 609.893 177.594 624.942 196.594C639.992 215.593 643.677 243.214 633.137 265.027C625.372 281.096 611.066 293.054 596.078 302.783C547.645 333.956 489.555 346.633 432.498 338.481L436.324 335.094Z" fill="#F2F2F2"/>
<path d="M601.08 178.145C581.169 194.323 562.902 212.416 546.545 232.164C520.946 262.964 500.23 297.495 485.121 334.557C484.015 337.26 488.416 338.437 489.51 335.764C514.231 275.531 553.697 222.444 604.298 181.355C606.57 179.51 603.333 176.314 601.08 178.145Z" fill="white"/>
<path d="M206.649 484.365C204.392 484.698 202.129 484.995 199.86 485.256C144.929 491.491 89.5283 478.563 43.0702 448.668C28.0844 438.943 13.7757 426.984 6.01241 410.909C-4.53189 389.098 -0.839788 361.479 14.2095 342.478C19.6883 335.619 26.4405 329.877 34.0969 325.566C35.2346 324.909 36.3899 324.297 37.5633 323.711C50.3017 317.32 64.6096 314.704 78.7924 316.174C102.922 318.804 125.194 333.509 138.049 354.041C152.24 376.725 154.975 404.479 157.341 431.117C157.53 430.505 157.747 429.901 157.982 429.316C158.481 428.061 159.085 426.85 159.787 425.696V469.948C159.791 473.529 161.219 476.962 163.758 479.494C166.297 482.027 169.738 483.451 173.328 483.455H205.62L206.649 484.365Z" fill="#F2F2F2"/>
<path d="M38.0687 324.03C57.9798 340.208 76.2462 358.301 92.6036 378.049C108.964 397.777 123.367 419.041 135.611 441.542C142.455 454.165 148.603 467.151 154.027 480.442C155.134 483.145 150.732 484.322 149.639 481.649C140.03 458.217 128.143 435.78 114.146 414.662C100.218 393.619 84.2767 373.974 66.5457 356.003C56.5171 345.843 45.9359 336.241 34.8503 327.24C32.5781 325.395 35.8152 322.199 38.0686 324.03H38.0687Z" fill="white"/>
<path d="M470.785 382.597H236.521V356.932C236.521 354.663 235.617 352.487 234.009 350.882C232.401 349.278 230.219 348.377 227.945 348.377C225.67 348.377 223.489 349.278 221.881 350.882C220.272 352.487 219.369 354.663 219.369 356.932V391.152C219.375 393.419 220.281 395.591 221.888 397.194C223.495 398.797 225.672 399.7 227.945 399.707H470.785C473.06 399.707 475.241 398.805 476.849 397.201C478.458 395.597 479.361 393.421 479.361 391.152C479.361 388.883 478.458 386.707 476.849 385.102C475.241 383.498 473.06 382.597 470.785 382.597Z" fill="#F2F2F2"/>
<path d="M702.925 559.945H36.4287C36.1442 559.944 35.8716 559.831 35.6707 559.63C35.4697 559.429 35.3569 559.156 35.3569 558.873C35.3569 558.589 35.4697 558.316 35.6707 558.115C35.8716 557.914 36.1442 557.801 36.4287 557.8H702.925C703.21 557.801 703.482 557.914 703.683 558.115C703.884 558.316 703.997 558.589 703.997 558.873C703.997 559.156 703.884 559.429 703.683 559.63C703.482 559.831 703.21 559.944 702.925 559.945Z" fill="#3F3D56"/>
<path d="M623.801 483.455H115.551C111.483 483.461 107.583 485.076 104.706 487.946C101.829 490.815 100.21 494.706 100.204 498.764V544.691C100.21 548.749 101.829 552.64 104.706 555.51C107.583 558.379 111.483 559.994 115.551 560H623.801C627.869 559.994 631.769 558.379 634.646 555.51C637.523 552.64 639.142 548.749 639.147 544.691V498.764C639.142 494.706 637.523 490.815 634.646 487.946C631.769 485.076 627.869 483.461 623.801 483.455ZM637.342 544.691C637.337 548.272 635.909 551.706 633.371 554.238C630.832 556.77 627.391 558.195 623.801 558.199H115.551C111.961 558.195 108.519 556.77 105.981 554.238C103.442 551.706 102.014 548.272 102.01 544.691V498.764C102.014 495.183 103.442 491.75 105.981 489.218C108.519 486.685 111.961 485.261 115.551 485.256H623.801C627.391 485.261 630.832 486.685 633.371 489.218C635.909 491.75 637.337 495.183 637.342 498.764V544.691Z" fill="#3F3D56"/>
<path d="M598.976 532.084H129.093V506.419C129.093 504.15 128.19 501.974 126.582 500.37C124.973 498.765 122.792 497.864 120.517 497.864C118.243 497.864 116.061 498.765 114.453 500.37C112.845 501.974 111.941 504.15 111.941 506.419V540.639C111.948 542.906 112.854 545.078 114.46 546.681C116.067 548.284 118.245 549.187 120.517 549.194H598.976C601.25 549.194 603.432 548.292 605.04 546.688C606.648 545.084 607.552 542.908 607.552 540.639C607.552 538.37 606.648 536.194 605.04 534.589C603.432 532.985 601.25 532.084 598.976 532.084Z" fill="#F2F2F2"/>
<path d="M515.02 452.838H187.772V427.173C187.772 424.904 186.869 422.728 185.26 421.123C183.652 419.519 181.471 418.618 179.196 418.618C176.922 418.618 174.74 419.519 173.132 421.123C171.524 422.728 170.62 424.904 170.62 427.173V461.393C170.627 463.659 171.532 465.832 173.139 467.435C174.746 469.038 176.924 469.941 179.196 469.948H515.02C517.295 469.948 519.476 469.046 521.084 467.442C522.693 465.838 523.596 463.662 523.596 461.393C523.596 459.124 522.693 456.948 521.084 455.343C519.476 453.739 517.295 452.838 515.02 452.838Z" fill="#F2F2F2"/>
<path d="M546.994 512.335C474.774 494.325 321.306 519.539 318.598 519.539C315.953 519.539 148.059 544.439 153.593 485.256C153.647 484.662 153.72 484.068 153.81 483.455H604.491C604.599 483.987 604.707 484.59 604.807 485.256C606.549 496.99 605.691 526.978 546.994 512.335Z" fill="#6C63FF"/>
<path d="M566.927 408.712H173.327C169.259 408.718 165.359 410.332 162.482 413.202C159.605 416.072 157.986 419.962 157.981 424.021V469.948C157.99 474.005 159.61 477.893 162.486 480.762C165.362 483.631 169.26 485.247 173.327 485.257H566.927C570.993 485.241 574.887 483.624 577.762 480.756C580.637 477.888 582.259 474.003 582.274 469.948V424.021C582.268 419.962 580.649 416.072 577.773 413.202C574.896 410.332 570.996 408.718 566.927 408.712ZM580.468 469.948C580.461 473.528 579.032 476.959 576.494 479.491C573.956 482.023 570.516 483.448 566.927 483.455H173.327C169.738 483.448 166.298 482.023 163.76 479.491C161.222 476.96 159.793 473.528 159.786 469.948V424.021C159.79 420.44 161.218 417.006 163.757 414.474C166.296 411.942 169.737 410.517 173.327 410.513H566.927C570.517 410.517 573.959 411.942 576.497 414.474C579.036 417.006 580.464 420.44 580.468 424.021V469.948Z" fill="#3F3D56"/>
<path d="M516.853 434.018C453.728 418.275 319.589 440.314 317.222 440.314C314.91 440.314 168.161 462.078 172.998 410.349C173.045 409.83 173.108 409.31 173.187 408.775H567.108C567.202 409.239 567.297 409.767 567.384 410.349C568.907 420.605 568.157 446.816 516.853 434.018Z" fill="#6C63FF"/>
<path d="M518.18 409.612H221.174C217.105 409.608 213.204 407.994 210.327 405.124C207.45 402.254 205.832 398.362 205.827 394.304V348.377C205.832 344.318 207.45 340.427 210.327 337.557C213.204 334.687 217.105 333.072 221.174 333.068H518.18C522.248 333.072 526.149 334.687 529.026 337.557C531.903 340.427 533.522 344.318 533.526 348.377V394.304C533.522 398.362 531.903 402.254 529.026 405.124C526.149 407.994 522.248 409.608 518.18 409.612ZM221.174 334.869C217.584 334.873 214.142 336.297 211.604 338.83C209.065 341.362 207.637 344.796 207.633 348.377V394.304C207.637 397.885 209.065 401.318 211.604 403.851C214.142 406.383 217.584 407.807 221.174 407.811H518.18C521.77 407.807 525.212 406.383 527.75 403.851C530.289 401.318 531.717 397.885 531.721 394.304V348.377C531.717 344.796 530.289 341.362 527.75 338.83C525.212 336.297 521.77 334.873 518.18 334.869H221.174Z" fill="#3F3D56"/>
<path d="M482.683 352.522C434.278 340.45 331.418 357.35 329.603 357.35C327.83 357.35 215.302 374.039 219.011 334.373C219.047 333.974 219.096 333.576 219.156 333.165H521.219C521.292 333.522 521.364 333.926 521.431 334.373C522.598 342.237 522.024 362.336 482.683 352.522Z" fill="#6C63FF"/>
<path d="M370.055 337.634C387.007 337.634 400.749 336.424 400.749 334.932C400.749 333.44 387.007 332.23 370.055 332.23C353.103 332.23 339.361 333.44 339.361 334.932C339.361 336.424 353.103 337.634 370.055 337.634Z" fill="#3F3D56"/>
<path d="M368.323 234.656C368.298 235.154 368.313 235.652 368.368 236.148L334.074 264.858L323.847 261.164L316.242 275.831L338.601 286.448L376.092 244.48C377.985 244.823 379.938 244.583 381.691 243.791C383.444 243 384.913 241.695 385.904 240.049C386.896 238.404 387.361 236.497 387.239 234.582C387.118 232.667 386.414 230.834 385.222 229.327C384.031 227.82 382.407 226.71 380.568 226.146C378.729 225.582 376.762 225.59 374.927 226.168C373.093 226.747 371.478 227.869 370.298 229.385C369.119 230.901 368.43 232.74 368.323 234.656V234.656Z" fill="#FFB8B8"/>
<path d="M322.329 282.866L289.213 270.943C287.706 270.402 286.321 269.57 285.137 268.494C283.953 267.419 282.993 266.122 282.312 264.676C281.63 263.231 281.242 261.665 281.167 260.07C281.093 258.474 281.334 256.879 281.878 255.377C282.421 253.874 283.257 252.494 284.335 251.313C285.414 250.133 286.716 249.176 288.166 248.498C289.615 247.82 291.185 247.433 292.785 247.36C294.384 247.287 295.983 247.529 297.488 248.073L330.604 259.997C331.106 260.177 331.567 260.455 331.962 260.813C332.356 261.171 332.675 261.604 332.902 262.086C333.129 262.567 333.258 263.089 333.283 263.62C333.308 264.152 333.227 264.683 333.046 265.184L327.529 280.431C327.162 281.441 326.409 282.264 325.434 282.721C324.459 283.177 323.343 283.23 322.329 282.866Z" fill="#2F2E41"/>
<path d="M367.42 212.398C367.181 212.398 366.951 212.303 366.782 212.134C366.612 211.965 366.517 211.736 366.517 211.497V178.178C366.517 177.939 366.612 177.71 366.782 177.541C366.951 177.372 367.181 177.277 367.42 177.277C367.659 177.277 367.889 177.372 368.058 177.541C368.228 177.71 368.323 177.939 368.323 178.178V211.497C368.323 211.736 368.228 211.965 368.058 212.134C367.889 212.303 367.659 212.398 367.42 212.398Z" fill="#3F3D56"/>
<path d="M382.767 170.974C391.168 178.76 380.693 195.288 369.226 195.288C363.719 195.288 358.438 193.106 354.544 189.221C350.65 185.337 348.462 180.069 348.462 174.576C348.462 163.137 370.903 112.676 366.517 123.246C365.117 126.62 373.146 162.057 382.767 170.974Z" fill="#FF6584"/>
<path d="M375.545 302H360.198C359.121 301.998 358.088 301.571 357.327 300.811C356.565 300.052 356.137 299.022 356.136 297.947V206.094C356.137 205.02 356.565 203.99 357.327 203.23C358.088 202.47 359.121 202.043 360.198 202.042H375.545C376.622 202.043 377.654 202.47 378.416 203.23C379.178 203.99 379.606 205.02 379.607 206.094V297.947C379.606 299.022 379.178 300.052 378.416 300.811C377.654 301.571 376.622 301.998 375.545 302Z" fill="#CCCCCC"/>
<path d="M298.075 399.027H309.143L314.408 356.443L298.073 356.444L298.075 399.027Z" fill="#FFB8B8"/>
<path d="M330.488 409.277L295.704 409.279L295.704 395.873L317.048 395.872C320.612 395.872 324.031 397.284 326.551 399.798C329.072 402.312 330.488 405.722 330.488 409.277Z" fill="#2F2E41"/>
<path d="M270.724 384.765L279.777 391.116L308.639 359.302L295.277 349.93L270.724 384.765Z" fill="#FFB8B8"/>
<path d="M291.327 411.748L262.872 391.791L270.602 380.824L288.063 393.071C290.978 395.116 292.96 398.232 293.573 401.735C294.185 405.238 293.377 408.839 291.327 411.748L291.327 411.748Z" fill="#2F2E41"/>
<path d="M322.293 322.317C322.293 322.317 349.913 319.066 344.955 336.945C339.998 354.823 284.759 370.264 284.759 370.264L322.293 322.317Z" fill="#FFB8B8"/>
<path d="M303.283 231.092C315.528 231.092 325.455 221.19 325.455 208.974C325.455 196.759 315.528 186.857 303.283 186.857C291.037 186.857 281.11 196.759 281.11 208.974C281.11 221.19 291.037 231.092 303.283 231.092Z" fill="#FFB8B8"/>
<path d="M232.573 366.603C219.957 351.948 215.542 329.457 235.662 310.751C240.631 306.245 246.257 302.517 252.349 299.697L268.565 254.459C270.249 249.736 273.337 245.636 277.417 242.709C281.498 239.781 286.376 238.164 291.401 238.073C296.28 237.863 301.105 239.165 305.213 241.8C309.321 244.435 312.51 248.275 314.342 252.79C316.323 257.384 316.549 262.543 314.979 267.292C310.152 282.288 303.813 296.756 296.059 310.476L296.897 317.167L337.885 320.801L337.503 321.421C337.303 321.745 317.243 352.233 291.581 372.47C282.806 379.39 273.732 382.257 265.169 382.257C252.183 382.256 240.372 375.661 232.573 366.603Z" fill="#2F2E41"/>
<path d="M369.434 265.544C369.2 265.984 369.001 266.442 368.839 266.913L325.564 278.361L317.881 270.681L304.747 280.733L320.462 299.823L372.28 277.731C373.848 278.843 375.718 279.454 377.642 279.48C379.566 279.507 381.452 278.949 383.05 277.88C384.648 276.811 385.882 275.283 386.588 273.497C387.294 271.712 387.438 269.754 387.002 267.885C386.565 266.016 385.568 264.323 384.144 263.033C382.72 261.743 380.935 260.915 379.028 260.661C377.121 260.407 375.182 260.738 373.468 261.61C371.754 262.482 370.347 263.854 369.434 265.544H369.434Z" fill="#FFB8B8"/>
<path d="M307.259 289.682L282.364 264.848C281.231 263.719 280.333 262.379 279.719 260.904C279.106 259.429 278.79 257.847 278.789 256.25C278.789 254.653 279.104 253.072 279.716 251.596C280.329 250.12 281.227 248.78 282.359 247.65C283.491 246.521 284.835 245.625 286.314 245.014C287.794 244.403 289.379 244.089 290.98 244.09C292.581 244.09 294.166 244.405 295.645 245.017C297.124 245.629 298.468 246.525 299.599 247.655L324.494 272.489C324.872 272.866 325.171 273.312 325.375 273.804C325.579 274.295 325.684 274.822 325.684 275.354C325.684 275.887 325.579 276.414 325.375 276.905C325.171 277.397 324.872 277.843 324.494 278.22L313.004 289.682C312.242 290.441 311.209 290.867 310.132 290.867C309.055 290.867 308.022 290.441 307.259 289.682Z" fill="#2F2E41"/>
<path d="M228.705 215.913C232.627 211.251 234.31 205.152 235.664 199.216C237.805 189.825 239.462 180.114 244.22 171.733C248.978 163.352 257.721 156.408 267.362 156.937C276.948 157.462 284.697 165.155 288.811 173.908C289.807 173.522 290.873 173.349 291.941 173.401C293.008 173.452 294.053 173.726 295.007 174.206C297.972 175.826 299.081 180.429 296.613 182.733C299.208 181.501 302.035 180.827 304.909 180.755C307.782 180.684 310.639 181.216 313.293 182.319C316.706 183.768 319.652 186.128 321.806 189.14C323.961 192.151 325.242 195.697 325.507 199.387C325.61 200.885 325.404 202.388 324.901 203.804C324.398 205.219 323.61 206.516 322.584 207.614C318.33 211.983 312.313 210.476 306.963 209.363C301.91 208.312 295.755 208.028 292.908 212.831C291.786 214.832 291.472 217.185 292.03 219.41C293.121 224.204 296.679 227.544 300.131 230.74L300.696 231.786C288.507 234.157 275.196 225.853 271.998 213.883C268.801 201.912 276.205 188.102 287.961 184.109C287.178 184.133 286.403 183.949 285.716 183.574C285.029 183.2 284.455 182.65 284.053 181.98C283.65 181.31 283.435 180.545 283.428 179.764C283.421 178.983 283.623 178.215 284.014 177.538C280.629 175.85 277.075 174.64 273.348 174.884C267.275 175.281 262.02 179.593 258.86 184.781C255.7 189.969 254.269 195.99 252.819 201.886C251.37 207.781 249.801 213.79 246.422 218.839C244.081 222.336 240.954 225.238 237.289 227.315C233.624 229.392 229.524 230.586 225.314 230.802C221.105 231.017 216.903 230.248 213.045 228.556C209.186 226.864 205.777 224.295 203.09 221.056C207.336 223.11 212.14 223.719 216.766 222.79C221.392 221.861 225.586 219.446 228.705 215.913Z" fill="#2F2E41"/>
</g>
<defs>
<clipPath id="clip0">
<rect width="704" height="560" fill="white"/>
</clipPath>
</defs>
</svg>